#!OML:ASF F:\VICON\USERDATA\INSTALL\rory3\rory3.ASF
:FULLY-SPECIFIED
:DEGREES
211
root 14.8319 17.9013 4.28935 -2.82669 3.42289 6.8087
lowerback 10.6318 0.29318 -5.42221
upperback 0.77461 -0.302591 -0.873562
thorax -5.13596 -0.0363733 2.18477
lowerneck -23.2865 -6.89365 -13.3314
upperneck 28.0279 -8.30464 10.5146
head 14.6445 -3.58255 4.9476
rclavicle -4.67144e-015 3.18055e-015
rhumerus -35.3204 -13.4955 -81.3271
rradius 30.8718
rwrist 7.06187
rhand -13.8362 9.71285
rfingers 7.12502
rthumb 12.287 -19.9062
lclavicle -4.67144e-015 3.18055e-015
lhumerus -29.2754 2.56882 80.689
lradius 37.7715
lwrist -4.23833
lhand -17.5074 29.1027
lfingers 7.12502
lthumb 8.74576 58.9015
rfemur -25.3156 -5.33462 16.7782
rtibia 23.26
rfoot -0.0113367 -12.1056
rtoes 4.53074
lfemur 9.18238 -1.28523 -26.6455
ltibia 10.572
lfoot -8.69132 -7.21766
ltoes -7.66272
212
root 14.8085 17.8837 4.40752 -2.77575 3.37116 6.91464
lowerback 10.4693 0.282587 -5.43639
upperback 0.78292 -0.310546 -0.941735
thorax -5.03598 -0.0433782 2.1218
lowerneck -23.2705 -6.84472 -13.2539
upperneck 28.0569 -8.25528 10.4773
head 14.6394 -3.55872 4.93009
rclavicle 1.65737e-014 -2.78299e-015
rhumerus -35.3819 -13.5651 -81.3644
rradius 30.9005
rwrist 7.26516
rhand -13.928 9.71632
rfingers 7.12502
rthumb 12.1985 -19.908
lclavicle 1.65737e-014 -2.78299e-015
lhumerus -29.2119 2.52243 80.6715
lradius 37.7989
lwrist -4.14616
lhand -17.4615 29.4133
lfingers 7.12502
lthumb 8.79 59.2103
rfemur -25.3954 -5.72778 17.1062
rtibia 22.4843
rfoot 0.085009 -13.7735
rtoes 8.00468
lfemur 9.7389 -1.38807 -26.6844
ltibia 10.3621
lfoot -8.74377 -7.07593
ltoes -10.3288
213
root 14.7825 17.8803 4.52513 -2.77428 3.25303 6.9707
lowerback 10.3458 0.305816 -5.41964
upperback 0.809695 -0.269951 -0.974603
thorax -4.942 -0.0269167 2.07165
lowerneck -23.2816 -6.82805 -13.1697
upperneck 28.0909 -8.22886 10.3705
head 14.6416 -3.55243 4.87663
rclavicle 6.03808e-015 7.55382e-015
rhumerus -35.3804 -13.5355 -81.3964
rradius 30.8464
rwrist 7.28996
rhand -13.9173 9.87522
rfingers 7.12502
rthumb 12.2088 -19.7485
lclavicle 6.03808e-015 7.55382e-015
lhumerus -29.0705 2.38275 80.7225
lradius 37.7179
lwrist -4.06349
lhand -17.2749 29.81
lfingers 7.12502
lthumb 8.97008 59.5993
rfemur -25.4052 -5.93446 17.4711
rtibia 21.9517
rfoot -0.064704 -15.7435
rtoes 11.4646
lfemur 10.2703 -1.39978 -26.6576
ltibia 10.118
lfoot -8.59595 -7.01504
ltoes -11.8613
214
root 14.7576 17.8812 4.64193 -2.82598 3.10384 7.15423
lowerback 10.2918 0.354576 -5.50546
upperback 0.863074 -0.212733 -1.04322
thorax -4.86003 -0.000579508 2.03969
lowerneck -23.3349 -6.838 -13.1196
upperneck 28.1628 -8.22212 10.2541
head 14.6743 -3.55875 4.82211
rclavicle -2.50966e-015 9.93923e-015
rhumerus -35.343 -13.5472 -81.422
rradius 30.8211
rwrist 7.22832
rhand -13.9252 9.93638
rfingers 7.12502
rthumb 12.2012 -19.6878
lclavicle -2.50966e-015 9.93923e-015
lhumerus -28.9266 2.27205 80.7849
lradius 37.7121
lwrist -4.09879
lhand -17.2535 30.3137
lfingers 7.12502
lthumb 8.99073 60.1022
rfemur -25.408 -6.56479 17.8245
rtibia 21.6841
rfoot 0.211826 -17.3683
rtoes 12.1977
lfemur 10.8464 -1.50973 -26.8034
ltibia 9.88412
lfoot -8.24922 -6.89796
ltoes -10.7664
215
root 14.7279 17.8721 4.75752 -2.82368 3.03068 7.36258
lowerback 10.1897 0.359084 -5.67098
upperback 0.879632 -0.221785 -1.12401
thorax -4.78473 -0.00463589 2.04912
lowerneck -23.1913 -6.78447 -12.9965
upperneck 28.1398 -8.16443 10.122
head 14.6093 -3.5422 4.75649
rclavicle -4.34841e-015 5.56597e-015
rhumerus -35.3885 -13.4921 -81.4961
rradius 30.866
rwrist 7.16345
rhand -13.9296 9.9887
rfingers 7.12502
rthumb 12.197 -19.6357
lclavicle -4.34841e-015 5.56597e-015
lhumerus -28.8312 2.25507 80.7616
lradius 37.6674
lwrist -4.17877
lhand -17.2533 30.675
lfingers 7.12502
lthumb 8.99093 60.4634
rfemur -25.4735 -7.10231 18.1468
rtibia 21.6595
rfoot 0.354557 -19.3702
rtoes 12.4215
lfemur 11.4508 -1.70244 -26.9627
ltibia 9.59584
lfoot -8.03374 -6.72297
ltoes -10.7661
